<svg
          width="33"
          height="23"
          viewBox="0 0 33 23"
          fill="none"
          xmlns="http://www.w3.org/2000/svg"
        >
          <path
            d="M31.6303 7.55214C31.2439 6.75751 30.7247 5.99416 30.0907 5.28087C28.6538 3.67283 26.6313 2.3401 24.2344 1.42033C21.8134 0.488042 19.0543 0 16.2529 0C13.4515 0 10.6924 0.488042 8.27742 1.42033C5.88055 2.3401 3.85196 3.67909 2.42108 5.28087C1.78111 5.99416 1.26793 6.75751 0.875495 7.55214C3.99686 6.77002 9.33397 5.73762 14.2907 5.63126C14.7677 5.61874 15.0997 5.78142 15.3171 6.06299C15.5735 6.39509 15.5599 7.56046 15.5532 8.1364L15.5526 8.19661L15.4137 22.4812C15.5051 22.4833 15.5972 22.486 15.6896 22.4888C15.8774 22.4944 16.0669 22.5 16.2529 22.5C16.5367 22.5 16.8204 22.4937 17.0981 22.4812L16.9529 8.16914C16.9467 7.60584 16.9333 6.40151 17.1887 6.06299C17.4061 5.77517 17.7321 5.61874 18.2151 5.63126C23.1718 5.73762 28.5089 6.77002 31.6303 7.55214Z"
            fill="#307FE2"
          />
          <path
            d="M32.2944 9.41045C27.7301 8.34051 24.6751 8.14029 21.6685 7.97135C19.0482 7.82118 19.012 8.79101 19.2716 10.6431C19.2817 10.7061 19.2919 10.779 19.3031 10.8594C19.3119 10.9227 19.3213 10.9907 19.332 11.0623C20.2134 16.462 21.3062 21.1047 21.4934 21.8931C27.887 20.3789 32.4997 16.1805 32.4997 11.25C32.5057 10.6306 32.4332 10.0111 32.2944 9.41045Z"
            fill="#307FE2"
          />
          <path
            d="M10.8433 7.97135C13.4696 7.82118 13.4998 8.79101 13.2401 10.6431C13.2325 10.6944 13.2225 10.7507 13.2116 10.812C13.2052 10.8478 13.1985 10.8854 13.1918 10.9246C12.3043 16.4245 11.1814 21.1673 11.0063 21.9056C10.0644 21.6866 9.14675 21.4113 8.27735 21.0797C5.88048 20.1599 3.85794 18.8272 2.42102 17.2191C0.839207 15.4484 0 13.3836 0 11.25C0 10.6306 0.0724495 10.0111 0.211311 9.41045C4.78167 8.34051 7.83058 8.14654 10.8433 7.97135Z"
            fill="#307FE2"
          />
        </svg>